<svg width="137" height="146" viewBox="0 0 137 146" fill="none" xmlns="http://www.w3.org/2000/svg">
<rect width="137" height="146" rx="25" fill="#07A081"/>
<path d="M43.12 107V43.675H63.775C70.4617 43.675 76.27 45.035 81.2 47.755C86.1867 50.4183 90.04 54.13 92.76 58.89C95.48 63.5933 96.84 69.0617 96.84 75.295C96.84 81.4717 95.48 86.9683 92.76 91.785C90.04 96.545 86.1867 100.285 81.2 103.005C76.27 105.668 70.4617 107 63.775 107H43.12ZM54.68 96.8H64.03C68.3367 96.8 72.0483 95.9217 75.165 94.165C78.3383 92.3517 80.8033 89.8583 82.56 86.685C84.3167 83.455 85.195 79.6583 85.195 75.295C85.195 70.875 84.3167 67.0783 82.56 63.905C80.8033 60.7317 78.3383 58.2667 75.165 56.51C72.0483 54.7533 68.3367 53.875 64.03 53.875H54.68V96.8Z" fill="white"/>
</svg>
